<?xml version="1.0" encoding="UTF-8"?>
<svg width="88px" height="88px" viewBox="0 0 88 88" version="1.1" xmlns="http://www.w3.org/2000/svg" xmlns:xlink="http://www.w3.org/1999/xlink">
    <!-- Generator: Sketch 48.2 (47327) - http://www.bohemiancoding.com/sketch -->
    <title>Group 5</title>
    <desc>Created with Sketch.</desc>
    <defs></defs>
    <g id="Team-Selector---After-Selection" stroke="none" stroke-width="1" fill="none" fill-rule="evenodd" transform="translate(-679.000000, -179.000000)">
        <g id="Group-5" transform="translate(679.000000, 179.000000)" fill="#007fd2">
            <path d="M75.6384739,44.7991582 C75.6351165,44.8018088 75.6319357,44.8044594 75.6285783,44.8072868 C75.5813976,44.8456322 75.5326265,44.8820339 75.4824418,44.9164918 C75.4661847,44.9278011 75.4501044,44.939287 75.4336707,44.9502429 C75.3999197,44.9721546 75.3652851,44.9926526 75.3304739,45.0127972 C75.2986667,45.0315282 75.2672129,45.0506126 75.2345221,45.0679299 C75.2325783,45.0688134 75.2308112,45.0695202 75.2288675,45.0705805 C74.9047871,45.2402194 74.5367068,45.337585 74.1453012,45.337585 L53.3034378,45.337585 C53.4704257,46.0283334 53.6520803,46.8127366 53.849992,47.6669391 C54.9922249,52.59919 58.0268112,65.7016741 61.2501205,65.7016741 L61.3132048,65.7032645 L61.3480161,65.6983167 L61.4098635,65.6988468 C63.9281124,65.6983167 65.2133012,62.057972 68.0298313,54.0822933 L68.063759,53.9856345 C68.5163052,52.7050376 69.026988,51.2597495 69.5793735,49.7305256 L69.7202088,49.3405328 L69.7226827,49.3414163 C69.8665221,48.9600822 70.2338956,48.6883066 70.6655904,48.6883066 C71.2223936,48.6883066 71.6738795,49.1397935 71.6738795,49.6967745 C71.6738795,49.7976743 71.6586827,49.8950399 71.6311165,49.9871044 L71.6314699,49.9872811 L71.5141365,50.3793943 C71.2202731,51.3290187 70.9082088,52.6216318 70.5470201,54.1185183 C68.8683052,61.0751267 66.3323855,71.5856699 59.8256867,71.5856699 L59.778506,71.5851397 C55.5741205,71.5519188 53.0586988,64.8308611 51.9843213,61.9609598 C49.974988,56.5943626 48.4549558,50.8759415 46.9893494,45.337585 L27.8039357,45.337585 L23.8213173,58.0845343 L23.7631807,58.0384137 C23.3988112,58.6112984 22.7600161,58.9784959 22.0551325,58.9784959 C20.9431165,58.9784959 20.0341365,58.0737552 20.029012,56.9619136 L20.0316627,56.8926444 L20.2726908,55.4508905 C20.8227791,52.1756228 21.4820723,48.7754232 22.2337831,45.337585 L14.1317751,45.337585 L14.1017349,45.306838 C12.6311807,45.0949661 11.5018474,43.798112 11.5018474,42.2854986 C11.5018474,40.8023952 12.5513092,39.5399991 13.9976546,39.283597 C14.1307149,39.2666331 14.3984257,39.2436611 14.94551,39.2436611 C15.06249,39.2436611 15.1936064,39.2445447 15.3392129,39.2470186 C17.9076466,39.2913721 20.6310522,39.3321914 23.6195181,39.3703602 C27.8488193,22.1877072 32.7466024,13.465264 38.1794538,13.4408784 C44.0095422,13.4408784 48.3340884,26.7154753 51.7955984,39.7004492 L51.8092048,39.7524011 C58.9218313,39.8946504 66.503261,40.1021046 73.8728193,40.6297523 L74.1817028,40.6585555 C74.3002731,40.6603226 74.4160161,40.672162 74.5296386,40.690893 L74.572755,40.6949572 C74.5854779,40.6970777 74.5976707,40.7007886 74.6103936,40.7032625 C74.616755,40.7044994 74.6231165,40.7060898 74.6296546,40.7075034 C75.7022651,40.9223794 76.4981526,41.8638752 76.4981526,42.9935642 C76.4981526,43.7170034 76.1632932,44.3688762 75.6384739,44.7991582 M44,0 C19.6994538,0 0,19.6994934 0,44.0000884 C0,68.3005066 19.6994538,88 44,88 C68.3005462,88 88,68.3005066 88,44.0000884 C88,19.6994934 68.3005462,0 44,0" id="Fill-3"></path>
            <path d="M38.4350551,19.4828977 C38.1959369,19.1660667 37.9244867,19 37.623298,19 C37.3741517,19 37.1471364,19.1118125 37.0005187,19.2060619 C34.7078885,21.0174935 31.5709963,28.6889074 29,38.7988071 L31.2758591,38.8248909 C35.770348,38.8758412 40.412319,38.9290521 45,39 C43.7907499,34.3692594 42.6473741,30.4001774 41.5997839,27.1963935 C40.0684245,22.5136592 39.0336287,20.4170449 38.4350551,19.4828977 L38.4350551,19.4828977 Z" id="Path"></path>
        </g>
    </g>
</svg>
