<svg width="88" height="88" viewBox="0 0 88 88" xmlns="http://www.w3.org/2000/svg"><g fill="#007fd2" fill-rule="evenodd"><path d="M75.638 44.8a2.26 2.26 0 0 1-.156.117l-.048.033a2.356 2.356 0 0 1-.104.063 1.8 1.8 0 0 1-.095.055l-.006.003a2.33 2.33 0 0 1-1.084.267H53.303c.167.69.35 1.475.547 2.329 1.142 4.932 4.177 18.035 7.4 18.035l.063.001.035-.005h.062c2.518 0 3.803-3.64 6.62-11.616l.034-.096c.452-1.281.963-2.726 1.515-4.255l.141-.39h.003a1.008 1.008 0 0 1 1.908.646l-.117.392c-.294.95-.606 2.243-.967 3.74-1.679 6.956-4.215 17.467-10.721 17.467h-.047c-4.205-.034-6.72-6.755-7.795-9.625-2.009-5.367-3.529-11.085-4.995-16.623H27.804L23.82 58.085l-.058-.047a2.027 2.027 0 0 1-1.708.94 2.03 2.03 0 0 1-2.026-2.016l.003-.07.24-1.441a211.83 211.83 0 0 1 1.962-10.113h-8.102l-.03-.031c-1.47-.212-2.6-1.509-2.6-3.022a3.034 3.034 0 0 1 2.496-3.001c.133-.017.4-.04.948-.04.116 0 .248 0 .393.003 2.569.044 5.292.085 8.28.123 4.23-17.182 9.128-25.905 14.56-25.93 5.83 0 10.155 13.275 13.617 26.26l.013.052c7.113.143 14.694.35 22.064.878l.309.029c.118.001.234.013.348.032l.043.004.037.008.02.005a2.326 2.326 0 0 1 1.868 2.286c0 .723-.335 1.375-.86 1.805M44 0C19.7 0 0 19.7 0 44s19.7 44 44 44 44-19.7 44-44S68.3 0 44 0"/><path d="M38.435 19.483c-.24-.317-.51-.483-.812-.483-.249 0-.476.112-.622.206C34.708 21.017 31.57 28.69 29 38.8l2.276.026c4.494.05 9.136.104 13.724.175-1.21-4.63-2.353-8.6-3.4-11.804-1.532-4.682-2.566-6.779-3.165-7.713z"/></g></svg>